<svg width="18" height="19" viewBox="0 0 18 19" fill="none" xmlns="http://www.w3.org/2000/svg">
<path d="M0.325195 8.05469C0.325195 4.1084 3.5332 0.900391 7.47949 0.900391C11.4258 0.900391 14.6338 4.1084 14.6338 8.05469C14.6338 9.59277 14.1328 11.0166 13.2979 12.168L17.3145 16.1934C17.5518 16.4395 17.6748 16.7646 17.6748 17.1162C17.6748 17.8457 17.1387 18.4082 16.3916 18.4082C16.0488 18.4082 15.7061 18.2939 15.46 18.0391L11.417 13.9961C10.292 14.7607 8.94727 15.209 7.47949 15.209C3.5332 15.209 0.325195 12.001 0.325195 8.05469ZM2.18848 8.05469C2.18848 10.9727 4.55273 13.3457 7.47949 13.3457C10.3975 13.3457 12.7705 10.9727 12.7705 8.05469C12.7705 5.13672 10.3975 2.76367 7.47949 2.76367C4.55273 2.76367 2.18848 5.13672 2.18848 8.05469Z" fill="#565656"/>
</svg>
